<?xml version="1.0" encoding="UTF-8"?> <svg xmlns="http://www.w3.org/2000/svg" xmlns:xlink="http://www.w3.org/1999/xlink" id="Layer_2" data-name="Layer 2" viewBox="0 0 642 772.82"><defs><style> .cls-1 { fill: url(#linear-gradient-2); } .cls-2 { fill: #eeff40; } .cls-3 { fill: url(#linear-gradient); opacity: .2; } </style><linearGradient id="linear-gradient" x1="2.5" y1="386.46" x2="639.5" y2="386.46" gradientUnits="userSpaceOnUse"><stop offset="0" stop-color="#faffc4"></stop><stop offset="1" stop-color="#eeff40"></stop></linearGradient><linearGradient id="linear-gradient-2" x1="0" y1="386.46" x2="642" y2="386.46" gradientUnits="userSpaceOnUse"><stop offset="0" stop-color="#eeff40"></stop><stop offset="1" stop-color="#f7ffa1" stop-opacity=".5"></stop></linearGradient></defs><g id="Layer_2-2" data-name="Layer 2"><g><circle class="cls-3" cx="321" cy="386.46" r="318.5"></circle><path class="cls-1" d="m321,707.46c-85.74,0-166.35-33.39-226.98-94.02S0,472.2,0,386.46s33.39-166.35,94.02-226.98,141.24-94.02,226.98-94.02,166.35,33.39,226.98,94.02,94.02,141.24,94.02,226.98-33.39,166.35-94.02,226.98-141.24,94.02-226.98,94.02Zm0-637C146.76,70.46,5,212.22,5,386.46s141.76,316,316,316,316-141.76,316-316S495.24,70.46,321,70.46Z"></path><g><path class="cls-2" d="m580.38,656.35c2.24.68,4.41.7,6.51.07s4.03-1.85,5.79-3.65c1.93-1.97,3.2-4.17,3.83-6.58.62-2.41.54-4.85-.23-7.32-.78-2.47-2.24-4.75-4.39-6.84-2.15-2.1-4.47-3.51-6.96-4.25-2.5-.74-4.95-.76-7.34-.08-2.4.68-4.56,2-6.49,3.98-2.6,2.66-3.97,5.55-4.1,8.66-.13,3.11.89,6.1,3.08,8.96l10.94-11.2,3.91,3.82-16.06,16.44-3.82-3.73c-2.01-2.58-3.34-5.48-3.98-8.71-.65-3.23-.51-6.48.42-9.74.92-3.26,2.66-6.2,5.2-8.8,2.74-2.8,5.89-4.73,9.46-5.78,3.57-1.05,7.17-1.12,10.82-.21,3.65.9,6.93,2.78,9.85,5.63,2.92,2.85,4.87,6.09,5.86,9.71.99,3.62,1,7.24.02,10.84-.98,3.6-2.82,6.79-5.53,9.57-3.1,3.18-6.64,5.24-10.62,6.19-3.98.95-7.94.59-11.89-1.09l5.74-5.88Z"></path><path class="cls-2" d="m528.97,661.19l17.88,7.11,4.09-3.24-10.36-13.07,5.36-4.25,25.89,32.69-11.29,8.94c-2.51,1.99-4.98,3.23-7.42,3.73-2.44.5-4.67.36-6.7-.44-2.03-.79-3.76-2.09-5.21-3.91-1.69-2.13-2.6-4.56-2.74-7.28-.14-2.72.83-5.42,2.9-8.08l-18.82-7.14,6.4-5.07Zm25.36,8.15l-5.93,4.69c-2.01,1.59-3.12,3.29-3.35,5.1-.22,1.81.33,3.56,1.68,5.26,1.34,1.69,2.89,2.62,4.65,2.78,1.76.16,3.66-.57,5.7-2.18l5.92-4.69-8.68-10.96Z"></path><path class="cls-2" d="m531.3,710.41l-23.03-34.76,5.7-3.78,23.03,34.76-5.7,3.78Z"></path><path class="cls-2" d="m495.99,690.16l-16.95,9.4-2.88-5.19,24.03-13.33,2.59,4.67-2.14,35.97,16.89-9.37,2.88,5.19-24.03,13.33-2.59-4.67,2.19-36Z"></path><path class="cls-2" d="m463.9,706.49l-17.83,7.6-2.33-5.46,25.28-10.78,2.1,4.91-5.84,35.56,17.77-7.58,2.33,5.46-25.28,10.78-2.09-4.91,5.89-35.58Z"></path><path class="cls-2" d="m429.84,719.1l-13.43,4.3-1.68-5.26,19.94-6.38,12.71,39.72-6.52,2.08-11.02-34.46Z"></path><path class="cls-2" d="m385.9,767.49l7.88-28.89-3.19-14.78,6.69-1.44,3.19,14.78,19.16,23.06-7.45,1.61-13.76-17.96-5.12,22.04-7.39,1.6Z"></path><path class="cls-2" d="m345.76,731.12c2.29.87,4.11,2.17,5.48,3.9s2.11,3.8,2.23,6.2l-7.31.37c-.25-1.79-1.04-3.23-2.35-4.33-1.32-1.1-3.11-1.59-5.39-1.47-2.36.12-4.17.78-5.43,1.99-1.26,1.21-1.85,2.71-1.76,4.5.07,1.4.54,2.52,1.4,3.35.86.84,1.92,1.46,3.16,1.88,1.24.42,2.96.85,5.14,1.3,2.75.58,5,1.2,6.73,1.85,1.74.65,3.24,1.73,4.52,3.23,1.28,1.5,1.98,3.54,2.11,6.14.12,2.4-.37,4.52-1.48,6.38-1.11,1.86-2.72,3.32-4.83,4.39-2.11,1.07-4.58,1.67-7.42,1.82-4.04.2-7.39-.64-10.07-2.53-2.68-1.89-4.25-4.58-4.7-8.08l7.55-.38c.2,1.51.98,2.77,2.35,3.79,1.37,1.01,3.14,1.46,5.29,1.35,1.96-.1,3.53-.68,4.72-1.74,1.19-1.06,1.73-2.53,1.64-4.41-.06-1.28-.51-2.31-1.33-3.09-.82-.78-1.84-1.38-3.06-1.8-1.22-.42-2.89-.86-4.99-1.31-2.79-.62-5.08-1.27-6.86-1.94-1.78-.67-3.31-1.77-4.61-3.28-1.3-1.52-2.01-3.59-2.15-6.23-.11-2.12.36-4.14,1.41-6.08,1.04-1.94,2.63-3.53,4.75-4.78,2.12-1.25,4.66-1.95,7.61-2.1,2.8-.14,5.34.22,7.62,1.09Z"></path><path class="cls-2" d="m277.79,770.55l2.84-41.6,6.82.47-1.24,18.2,19.57,1.34,1.24-18.2,6.82.47-2.84,41.6-6.83-.47,1.22-17.84-19.57-1.34-1.22,17.84-6.82-.46Z"></path><path class="cls-2" d="m261.43,728.26c2.83,2.44,4.84,5.44,6.05,9.02,1.21,3.58,1.4,7.36.58,11.36-.82,4-2.49,7.39-5,10.18-2.51,2.79-5.55,4.75-9.11,5.88-3.56,1.13-7.24,1.3-11.04.52-3.84-.79-7.17-2.4-10-4.84-2.83-2.44-4.84-5.43-6.03-8.99-1.19-3.55-1.38-7.33-.55-11.32.82-4,2.48-7.4,4.98-10.22,2.5-2.82,5.53-4.79,9.08-5.91,3.56-1.13,7.26-1.3,11.1-.51,3.8.78,7.12,2.39,9.94,4.83Zm-18.75,1.36c-2.37.8-4.38,2.22-6.05,4.27-1.67,2.05-2.81,4.58-3.43,7.6-.62,3.02-.56,5.78.16,8.3.73,2.52,2.03,4.6,3.89,6.25,1.87,1.65,4.15,2.75,6.86,3.31,2.7.55,5.24.44,7.6-.34,2.36-.78,4.38-2.18,6.04-4.21,1.66-2.03,2.8-4.55,3.42-7.57s.57-5.79-.16-8.33c-.72-2.54-2.02-4.64-3.88-6.31-1.86-1.67-4.15-2.78-6.85-3.34-2.7-.55-5.24-.43-7.61.37Z"></path><path class="cls-2" d="m157.03,737.33l26.35-34.61,7.24,2.75-3,32.62,19.89-26.21,7.2,2.67-3.76,43.24-6.79-2.58,3.97-34.82-20.8,28.43-7.18-2.72,3.85-34.67-20.12,28.5-6.84-2.6Z"></path><path class="cls-2" d="m146.85,683.76l.23,19.24,4.56,2.55,8.14-14.56,5.97,3.34-20.36,36.39-12.57-7.03c-2.79-1.56-4.88-3.37-6.28-5.44-1.39-2.06-2.11-4.18-2.15-6.36-.04-2.18.5-4.28,1.64-6.3,1.33-2.37,3.22-4.14,5.69-5.31,2.46-1.17,5.32-1.3,8.57-.39l-.57-20.12,7.12,3.98Zm2.12,26.56l-6.6-3.69c-2.23-1.25-4.23-1.63-5.99-1.15-1.76.48-3.17,1.67-4.22,3.55-1.06,1.88-1.32,3.67-.8,5.36s1.92,3.17,4.19,4.44l6.6,3.69,6.83-12.2Z"></path><path class="cls-2" d="m104.85,699.79l7.08-9.99-11.75-8.33,3.23-4.55,11.75,8.33,7.39-10.43-13.22-9.37,3.23-4.55,18.8,13.32-24.14,34.07-18.8-13.32,3.23-4.55,13.22,9.37Z"></path><path class="cls-2" d="m75.26,677.19l8.12-9.16-10.78-9.55,3.7-4.18,10.78,9.55,8.47-9.57-12.12-10.74,3.7-4.18,17.25,15.28-27.69,31.26-17.25-15.28,3.7-4.18,12.13,10.74Z"></path><path class="cls-2" d="m70.66,631.01l-9.81-10.13,3.97-3.84,14.57,15.04-29.96,29-4.76-4.91,25.99-25.17Z"></path><path class="cls-2" d="m57.54,120.57c-2.25-.65-4.42-.64-6.51.03-2.09.67-4,1.91-5.74,3.74-1.9,2-3.14,4.22-3.73,6.64-.59,2.42-.47,4.86.35,7.31.81,2.45,2.31,4.71,4.49,6.78,2.18,2.06,4.52,3.44,7.03,4.14,2.51.7,4.96.69,7.34-.03,2.39-.71,4.53-2.07,6.43-4.08,2.56-2.7,3.88-5.61,3.97-8.72.09-3.11-.98-6.08-3.21-8.91l-10.77,11.37-3.96-3.75,15.81-16.68,3.88,3.67c2.05,2.55,3.42,5.43,4.12,8.65.7,3.22.61,6.47-.27,9.75-.87,3.28-2.56,6.24-5.07,8.88-2.7,2.85-5.82,4.82-9.37,5.92-3.55,1.1-7.15,1.23-10.81.38-3.66-.85-6.97-2.68-9.93-5.48-2.96-2.81-4.96-6.01-6.01-9.62-1.04-3.61-1.11-7.22-.18-10.84.92-3.62,2.72-6.83,5.38-9.65,3.05-3.22,6.56-5.34,10.52-6.35,3.96-1.01,7.93-.71,11.91.91l-5.65,5.97Z"></path><path class="cls-2" d="m108.85,114.96l-17.99-6.84-4.04,3.3,10.56,12.91-5.3,4.33-26.39-32.28,11.15-9.12c2.48-2.03,4.93-3.31,7.36-3.84s4.66-.43,6.7.33c2.04.76,3.8,2.04,5.27,3.83,1.72,2.11,2.67,4.52,2.85,7.24s-.74,5.43-2.78,8.12l18.93,6.85-6.32,5.17Zm-25.49-7.76l5.85-4.78c1.98-1.62,3.07-3.34,3.27-5.15.2-1.81-.39-3.56-1.76-5.23-1.37-1.67-2.93-2.58-4.7-2.71-1.76-.13-3.65.62-5.66,2.27l-5.85,4.79,8.85,10.82Z"></path><path class="cls-2" d="m105.75,65.78l23.56,34.4-5.64,3.87-23.56-34.4,5.64-3.87Z"></path><path class="cls-2" d="m141.39,85.48l16.8-9.66,2.96,5.15-23.82,13.7-2.66-4.63,1.58-36-16.75,9.63-2.96-5.15,23.82-13.7,2.66,4.63-1.63,36.03Z"></path><path class="cls-2" d="m173.24,68.64l17.71-7.87,2.41,5.43-25.11,11.17-2.17-4.88,5.29-35.65-17.65,7.85-2.41-5.43,25.11-11.17,2.17,4.88-5.35,35.67Z"></path><path class="cls-2" d="m207.06,55.53l13.36-4.5,1.76,5.23-19.84,6.69-13.31-39.52,6.48-2.18,11.55,34.29Z"></path><path class="cls-2" d="m250.27,6.47l-7.44,29.01,3.42,14.73-6.66,1.54-3.42-14.73-19.51-22.76,7.42-1.72,14.03,17.75,4.79-22.11,7.36-1.71Z"></path><path class="cls-2" d="m290.94,42.22c-2.3-.83-4.15-2.1-5.54-3.82-1.4-1.71-2.17-3.77-2.33-6.16l7.3-.48c.28,1.79,1.08,3.22,2.42,4.29,1.33,1.08,3.14,1.54,5.41,1.39,2.35-.16,4.15-.84,5.4-2.07,1.24-1.22,1.8-2.73,1.69-4.53-.09-1.4-.58-2.51-1.45-3.33-.88-.82-1.94-1.44-3.19-1.83-1.25-.4-2.97-.81-5.16-1.22-2.76-.54-5.01-1.12-6.76-1.75-1.75-.63-3.27-1.68-4.57-3.16-1.3-1.48-2.04-3.51-2.21-6.11-.16-2.39.3-4.53,1.38-6.4,1.08-1.88,2.66-3.36,4.76-4.46,2.09-1.1,4.55-1.74,7.39-1.93,4.03-.27,7.4.53,10.11,2.37,2.71,1.85,4.32,4.52,4.83,8.01l-7.54.5c-.22-1.51-1.02-2.76-2.41-3.75-1.39-.99-3.16-1.42-5.32-1.27-1.96.13-3.52.73-4.69,1.81-1.17,1.08-1.7,2.56-1.57,4.43.08,1.28.54,2.3,1.37,3.07.83.77,1.86,1.35,3.09,1.75,1.23.4,2.9.81,5.01,1.23,2.8.58,5.1,1.19,6.89,1.83s3.34,1.71,4.66,3.21c1.32,1.5,2.07,3.56,2.24,6.2.14,2.12-.3,4.15-1.31,6.1-1.01,1.95-2.57,3.57-4.67,4.85-2.1,1.28-4.63,2.02-7.58,2.21-2.79.18-5.34-.14-7.64-.97Z"></path><path class="cls-2" d="m358.33,1.76l-2.21,41.64-6.83-.36.97-18.21-19.59-1.04-.97,18.21-6.83-.36,2.21-41.64,6.83.36-.95,17.85,19.59,1.04.95-17.85,6.83.36Z"></path><path class="cls-2" d="m375.3,43.8c-2.87-2.39-4.93-5.37-6.19-8.93-1.26-3.56-1.51-7.34-.75-11.35.76-4.01,2.37-7.43,4.84-10.26,2.47-2.83,5.47-4.84,9.02-6.02,3.54-1.18,7.22-1.41,11.03-.69,3.85.73,7.21,2.29,10.07,4.69,2.86,2.4,4.92,5.36,6.16,8.89s1.49,7.3.73,11.31-2.37,7.44-4.82,10.29c-2.46,2.85-5.45,4.87-8.99,6.05-3.54,1.18-7.24,1.41-11.09.68-3.81-.72-7.15-2.28-10.01-4.67Zm18.72-1.65c2.36-.84,4.35-2.29,5.99-4.36,1.63-2.07,2.74-4.62,3.31-7.65.57-3.03.48-5.79-.29-8.3s-2.1-4.57-3.99-6.19c-1.89-1.62-4.19-2.69-6.91-3.2s-5.25-.36-7.6.45c-2.35.82-4.35,2.25-5.97,4.3-1.63,2.05-2.73,4.59-3.31,7.62-.57,3.03-.48,5.8.29,8.33.76,2.53,2.09,4.61,3.98,6.25,1.89,1.64,4.19,2.72,6.9,3.23,2.71.51,5.25.35,7.6-.48Z"></path><path class="cls-2" d="m479.58,33.12l-25.81,35.01-7.28-2.63,2.5-32.66-19.48,26.51-7.24-2.56,3.09-43.29,6.83,2.47-3.43,34.87,20.36-28.75,7.22,2.61-3.31,34.72,19.67-28.8,6.88,2.49Z"></path><path class="cls-2" d="m490.6,86.53l-.53-19.24-4.59-2.48-7.92,14.68-6.02-3.25,19.8-36.7,12.67,6.84c2.81,1.52,4.93,3.3,6.36,5.34,1.42,2.04,2.17,4.15,2.25,6.33.07,2.18-.44,4.29-1.54,6.33-1.29,2.39-3.16,4.19-5.6,5.4-2.45,1.2-5.3,1.38-8.57.53l.88,20.11-7.18-3.87Zm-2.53-26.52l6.65,3.59c2.25,1.22,4.25,1.57,6.01,1.06,1.75-.51,3.14-1.71,4.17-3.62,1.03-1.9,1.26-3.69.72-5.37-.55-1.68-1.96-3.14-4.25-4.37l-6.65-3.59-6.64,12.3Z"></path><path class="cls-2" d="m532.32,69.85l-6.92,10.1,11.88,8.14-3.15,4.6-11.88-8.14-7.23,10.54,13.36,9.16-3.16,4.6-19-13.03,23.62-34.44,19,13.03-3.16,4.6-13.36-9.16Z"></path><path class="cls-2" d="m561.81,91.72l-7.82,9.42,11.08,9.2-3.56,4.29-11.08-9.19-8.16,9.84,12.47,10.34-3.56,4.29-17.73-14.71,26.66-32.14,17.73,14.71-3.56,4.29-12.47-10.34Z"></path><path class="cls-2" d="m567.57,138.12l9.96,9.98-3.91,3.9-14.79-14.82,29.52-29.46,4.83,4.84-25.61,25.56Z"></path></g><path class="cls-2" d="m437.94,385.6l-189.79-113.84c-.67-.4-1.51.08-1.51.86v227.69c0,.78.85,1.26,1.51.86l189.79-113.84c.65-.39.65-1.33,0-1.72Z"></path></g></g></svg> 